<mxfile host="app.diagrams.net" modified="2024-05-16T01:30:13.430Z" agent="Mozilla/5.0 (Macintosh; Intel Mac OS X 10_15_7) AppleWebKit/537.36 (KHTML, like Gecko) Chrome/124.0.0.0 Safari/537.36" etag="g541Vx9WjjZFwD-UX2tv" version="24.4.0" type="github">
  <diagram name="第 1 页" id="PYLOU48o0T-Qz-G3AWQP">
    <mxGraphModel dx="1468" dy="932" grid="1" gridSize="10" guides="1" tooltips="1" connect="1" arrows="1" fold="1" page="1" pageScale="1" pageWidth="827" pageHeight="1169" math="0" shadow="0">
      <root>
        <mxCell id="0" />
        <mxCell id="1" parent="0" />
        <mxCell id="Q4vqD3HeZzeTy6qUB660-1" value="6" style="rounded=0;whiteSpace=wrap;html=1;fillColor=#dae8fc;strokeColor=#6c8ebf;" vertex="1" parent="1">
          <mxGeometry x="480" y="280" width="40" height="40" as="geometry" />
        </mxCell>
        <mxCell id="Q4vqD3HeZzeTy6qUB660-4" value="5" style="rounded=0;whiteSpace=wrap;html=1;fillColor=#dae8fc;strokeColor=#6c8ebf;" vertex="1" parent="1">
          <mxGeometry x="480" y="320" width="40" height="40" as="geometry" />
        </mxCell>
        <mxCell id="Q4vqD3HeZzeTy6qUB660-18" style="edgeStyle=orthogonalEdgeStyle;rounded=0;orthogonalLoop=1;jettySize=auto;html=1;exitX=1;exitY=0.5;exitDx=0;exitDy=0;" edge="1" parent="1" source="Q4vqD3HeZzeTy6qUB660-5">
          <mxGeometry relative="1" as="geometry">
            <mxPoint x="640" y="500" as="targetPoint" />
          </mxGeometry>
        </mxCell>
        <mxCell id="Q4vqD3HeZzeTy6qUB660-5" value="1" style="rounded=0;whiteSpace=wrap;html=1;fillColor=#dae8fc;strokeColor=#6c8ebf;" vertex="1" parent="1">
          <mxGeometry x="480" y="480" width="40" height="40" as="geometry" />
        </mxCell>
        <mxCell id="Q4vqD3HeZzeTy6qUB660-6" value="2" style="rounded=0;whiteSpace=wrap;html=1;fillColor=#dae8fc;strokeColor=#6c8ebf;" vertex="1" parent="1">
          <mxGeometry x="480" y="440" width="40" height="40" as="geometry" />
        </mxCell>
        <mxCell id="Q4vqD3HeZzeTy6qUB660-7" value="4" style="rounded=0;whiteSpace=wrap;html=1;fillColor=#dae8fc;strokeColor=#6c8ebf;" vertex="1" parent="1">
          <mxGeometry x="480" y="360" width="40" height="40" as="geometry" />
        </mxCell>
        <mxCell id="Q4vqD3HeZzeTy6qUB660-8" value="3" style="rounded=0;whiteSpace=wrap;html=1;fillColor=#dae8fc;strokeColor=#6c8ebf;" vertex="1" parent="1">
          <mxGeometry x="480" y="400" width="40" height="40" as="geometry" />
        </mxCell>
        <mxCell id="Q4vqD3HeZzeTy6qUB660-10" value="&lt;font style=&quot;font-size: 17px;&quot;&gt;{ 1， 2， 3， 4， 5， 6 }&lt;/font&gt;" style="text;html=1;align=center;verticalAlign=middle;whiteSpace=wrap;rounded=0;" vertex="1" parent="1">
          <mxGeometry x="320" y="200" width="270" height="40" as="geometry" />
        </mxCell>
        <mxCell id="Q4vqD3HeZzeTy6qUB660-11" value="" style="endArrow=classic;html=1;rounded=0;fillColor=#d5e8d4;strokeColor=#82b366;strokeWidth=5;" edge="1" parent="1">
          <mxGeometry width="50" height="50" relative="1" as="geometry">
            <mxPoint x="280" y="280" as="sourcePoint" />
            <mxPoint x="280" y="520" as="targetPoint" />
          </mxGeometry>
        </mxCell>
        <mxCell id="Q4vqD3HeZzeTy6qUB660-12" value="进栈" style="text;html=1;align=center;verticalAlign=middle;whiteSpace=wrap;rounded=0;" vertex="1" parent="1">
          <mxGeometry x="220" y="280" width="60" height="30" as="geometry" />
        </mxCell>
        <mxCell id="Q4vqD3HeZzeTy6qUB660-13" value="" style="endArrow=classic;html=1;rounded=0;fillColor=#f8cecc;strokeColor=#b85450;strokeWidth=5;" edge="1" parent="1">
          <mxGeometry width="50" height="50" relative="1" as="geometry">
            <mxPoint x="320" y="520" as="sourcePoint" />
            <mxPoint x="320" y="280" as="targetPoint" />
          </mxGeometry>
        </mxCell>
        <mxCell id="Q4vqD3HeZzeTy6qUB660-14" value="出栈" style="text;html=1;align=center;verticalAlign=middle;whiteSpace=wrap;rounded=0;" vertex="1" parent="1">
          <mxGeometry x="320" y="490" width="60" height="30" as="geometry" />
        </mxCell>
        <mxCell id="Q4vqD3HeZzeTy6qUB660-16" value="栈顶" style="text;html=1;align=center;verticalAlign=middle;resizable=0;points=[];autosize=1;strokeColor=none;fillColor=none;" vertex="1" parent="1">
          <mxGeometry x="650" y="285" width="50" height="30" as="geometry" />
        </mxCell>
        <mxCell id="Q4vqD3HeZzeTy6qUB660-19" value="栈低" style="text;html=1;align=center;verticalAlign=middle;resizable=0;points=[];autosize=1;strokeColor=none;fillColor=none;" vertex="1" parent="1">
          <mxGeometry x="650" y="490" width="50" height="30" as="geometry" />
        </mxCell>
        <mxCell id="Q4vqD3HeZzeTy6qUB660-20" style="edgeStyle=orthogonalEdgeStyle;rounded=0;orthogonalLoop=1;jettySize=auto;html=1;exitX=1;exitY=0.5;exitDx=0;exitDy=0;" edge="1" parent="1">
          <mxGeometry relative="1" as="geometry">
            <mxPoint x="640" y="299.5" as="targetPoint" />
            <mxPoint x="520" y="299.5" as="sourcePoint" />
          </mxGeometry>
        </mxCell>
        <mxCell id="Q4vqD3HeZzeTy6qUB660-133" value="" style="rounded=0;whiteSpace=wrap;html=1;" vertex="1" parent="1">
          <mxGeometry x="240" y="760" width="40" height="40" as="geometry" />
        </mxCell>
        <mxCell id="Q4vqD3HeZzeTy6qUB660-134" value="" style="rounded=0;whiteSpace=wrap;html=1;" vertex="1" parent="1">
          <mxGeometry x="240" y="800" width="40" height="40" as="geometry" />
        </mxCell>
        <mxCell id="Q4vqD3HeZzeTy6qUB660-135" value="" style="rounded=0;whiteSpace=wrap;html=1;" vertex="1" parent="1">
          <mxGeometry x="240" y="960" width="40" height="40" as="geometry" />
        </mxCell>
        <mxCell id="Q4vqD3HeZzeTy6qUB660-136" value="" style="rounded=0;whiteSpace=wrap;html=1;" vertex="1" parent="1">
          <mxGeometry x="240" y="920" width="40" height="40" as="geometry" />
        </mxCell>
        <mxCell id="Q4vqD3HeZzeTy6qUB660-137" value="" style="rounded=0;whiteSpace=wrap;html=1;" vertex="1" parent="1">
          <mxGeometry x="240" y="840" width="40" height="40" as="geometry" />
        </mxCell>
        <mxCell id="Q4vqD3HeZzeTy6qUB660-138" value="" style="rounded=0;whiteSpace=wrap;html=1;" vertex="1" parent="1">
          <mxGeometry x="240" y="880" width="40" height="40" as="geometry" />
        </mxCell>
        <mxCell id="Q4vqD3HeZzeTy6qUB660-139" value="" style="shape=flexArrow;endArrow=classic;html=1;rounded=0;" edge="1" parent="1">
          <mxGeometry width="50" height="50" relative="1" as="geometry">
            <mxPoint x="190" y="979.4099999999999" as="sourcePoint" />
            <mxPoint x="240" y="979.4099999999999" as="targetPoint" />
          </mxGeometry>
        </mxCell>
        <mxCell id="Q4vqD3HeZzeTy6qUB660-146" value="" style="rounded=0;whiteSpace=wrap;html=1;" vertex="1" parent="1">
          <mxGeometry x="360" y="760" width="40" height="40" as="geometry" />
        </mxCell>
        <mxCell id="Q4vqD3HeZzeTy6qUB660-147" value="" style="rounded=0;whiteSpace=wrap;html=1;" vertex="1" parent="1">
          <mxGeometry x="360" y="800" width="40" height="40" as="geometry" />
        </mxCell>
        <mxCell id="Q4vqD3HeZzeTy6qUB660-148" value="1" style="rounded=0;whiteSpace=wrap;html=1;fillColor=#d5e8d4;strokeColor=#82b366;" vertex="1" parent="1">
          <mxGeometry x="360" y="960" width="40" height="40" as="geometry" />
        </mxCell>
        <mxCell id="Q4vqD3HeZzeTy6qUB660-149" value="" style="rounded=0;whiteSpace=wrap;html=1;" vertex="1" parent="1">
          <mxGeometry x="360" y="920" width="40" height="40" as="geometry" />
        </mxCell>
        <mxCell id="Q4vqD3HeZzeTy6qUB660-150" value="" style="rounded=0;whiteSpace=wrap;html=1;" vertex="1" parent="1">
          <mxGeometry x="360" y="840" width="40" height="40" as="geometry" />
        </mxCell>
        <mxCell id="Q4vqD3HeZzeTy6qUB660-151" value="" style="rounded=0;whiteSpace=wrap;html=1;" vertex="1" parent="1">
          <mxGeometry x="360" y="880" width="40" height="40" as="geometry" />
        </mxCell>
        <mxCell id="Q4vqD3HeZzeTy6qUB660-152" value="" style="shape=flexArrow;endArrow=classic;html=1;rounded=0;" edge="1" parent="1">
          <mxGeometry width="50" height="50" relative="1" as="geometry">
            <mxPoint x="310" y="979.4099999999999" as="sourcePoint" />
            <mxPoint x="360" y="979.4099999999999" as="targetPoint" />
          </mxGeometry>
        </mxCell>
        <mxCell id="Q4vqD3HeZzeTy6qUB660-160" value="" style="rounded=0;whiteSpace=wrap;html=1;" vertex="1" parent="1">
          <mxGeometry x="480" y="760" width="40" height="40" as="geometry" />
        </mxCell>
        <mxCell id="Q4vqD3HeZzeTy6qUB660-161" value="" style="rounded=0;whiteSpace=wrap;html=1;" vertex="1" parent="1">
          <mxGeometry x="480" y="800" width="40" height="40" as="geometry" />
        </mxCell>
        <mxCell id="Q4vqD3HeZzeTy6qUB660-162" value="1" style="rounded=0;whiteSpace=wrap;html=1;fillColor=#d5e8d4;strokeColor=#82b366;" vertex="1" parent="1">
          <mxGeometry x="480" y="960" width="40" height="40" as="geometry" />
        </mxCell>
        <mxCell id="Q4vqD3HeZzeTy6qUB660-163" value="" style="rounded=0;whiteSpace=wrap;html=1;" vertex="1" parent="1">
          <mxGeometry x="480" y="920" width="40" height="40" as="geometry" />
        </mxCell>
        <mxCell id="Q4vqD3HeZzeTy6qUB660-164" value="" style="rounded=0;whiteSpace=wrap;html=1;" vertex="1" parent="1">
          <mxGeometry x="480" y="840" width="40" height="40" as="geometry" />
        </mxCell>
        <mxCell id="Q4vqD3HeZzeTy6qUB660-165" value="" style="rounded=0;whiteSpace=wrap;html=1;" vertex="1" parent="1">
          <mxGeometry x="480" y="880" width="40" height="40" as="geometry" />
        </mxCell>
        <mxCell id="Q4vqD3HeZzeTy6qUB660-166" value="" style="shape=flexArrow;endArrow=classic;html=1;rounded=0;" edge="1" parent="1">
          <mxGeometry width="50" height="50" relative="1" as="geometry">
            <mxPoint x="430" y="939.4099999999999" as="sourcePoint" />
            <mxPoint x="480" y="939.4099999999999" as="targetPoint" />
          </mxGeometry>
        </mxCell>
        <mxCell id="Q4vqD3HeZzeTy6qUB660-175" value="" style="rounded=0;whiteSpace=wrap;html=1;" vertex="1" parent="1">
          <mxGeometry x="600" y="760" width="40" height="40" as="geometry" />
        </mxCell>
        <mxCell id="Q4vqD3HeZzeTy6qUB660-176" value="" style="rounded=0;whiteSpace=wrap;html=1;" vertex="1" parent="1">
          <mxGeometry x="600" y="800" width="40" height="40" as="geometry" />
        </mxCell>
        <mxCell id="Q4vqD3HeZzeTy6qUB660-177" value="1" style="rounded=0;whiteSpace=wrap;html=1;fillColor=#d5e8d4;strokeColor=#82b366;" vertex="1" parent="1">
          <mxGeometry x="600" y="960" width="40" height="40" as="geometry" />
        </mxCell>
        <mxCell id="Q4vqD3HeZzeTy6qUB660-178" value="2" style="rounded=0;whiteSpace=wrap;html=1;fillColor=#d5e8d4;strokeColor=#82b366;" vertex="1" parent="1">
          <mxGeometry x="600" y="920" width="40" height="40" as="geometry" />
        </mxCell>
        <mxCell id="Q4vqD3HeZzeTy6qUB660-179" value="" style="rounded=0;whiteSpace=wrap;html=1;" vertex="1" parent="1">
          <mxGeometry x="600" y="840" width="40" height="40" as="geometry" />
        </mxCell>
        <mxCell id="Q4vqD3HeZzeTy6qUB660-180" value="" style="rounded=0;whiteSpace=wrap;html=1;" vertex="1" parent="1">
          <mxGeometry x="600" y="880" width="40" height="40" as="geometry" />
        </mxCell>
        <mxCell id="Q4vqD3HeZzeTy6qUB660-181" value="" style="shape=flexArrow;endArrow=classic;html=1;rounded=0;" edge="1" parent="1">
          <mxGeometry width="50" height="50" relative="1" as="geometry">
            <mxPoint x="550" y="939.4099999999999" as="sourcePoint" />
            <mxPoint x="600" y="939.4099999999999" as="targetPoint" />
          </mxGeometry>
        </mxCell>
        <mxCell id="Q4vqD3HeZzeTy6qUB660-203" value="" style="rounded=0;whiteSpace=wrap;html=1;" vertex="1" parent="1">
          <mxGeometry x="720" y="760" width="40" height="40" as="geometry" />
        </mxCell>
        <mxCell id="Q4vqD3HeZzeTy6qUB660-204" value="" style="rounded=0;whiteSpace=wrap;html=1;" vertex="1" parent="1">
          <mxGeometry x="720" y="800" width="40" height="40" as="geometry" />
        </mxCell>
        <mxCell id="Q4vqD3HeZzeTy6qUB660-205" value="1" style="rounded=0;whiteSpace=wrap;html=1;fillColor=#d5e8d4;strokeColor=#82b366;" vertex="1" parent="1">
          <mxGeometry x="720" y="960" width="40" height="40" as="geometry" />
        </mxCell>
        <mxCell id="Q4vqD3HeZzeTy6qUB660-206" value="2" style="rounded=0;whiteSpace=wrap;html=1;fillColor=#d5e8d4;strokeColor=#82b366;" vertex="1" parent="1">
          <mxGeometry x="720" y="920" width="40" height="40" as="geometry" />
        </mxCell>
        <mxCell id="Q4vqD3HeZzeTy6qUB660-207" value="" style="rounded=0;whiteSpace=wrap;html=1;" vertex="1" parent="1">
          <mxGeometry x="720" y="840" width="40" height="40" as="geometry" />
        </mxCell>
        <mxCell id="Q4vqD3HeZzeTy6qUB660-208" value="" style="rounded=0;whiteSpace=wrap;html=1;" vertex="1" parent="1">
          <mxGeometry x="720" y="880" width="40" height="40" as="geometry" />
        </mxCell>
        <mxCell id="Q4vqD3HeZzeTy6qUB660-209" value="" style="shape=flexArrow;endArrow=classic;html=1;rounded=0;" edge="1" parent="1">
          <mxGeometry width="50" height="50" relative="1" as="geometry">
            <mxPoint x="670" y="899.4099999999999" as="sourcePoint" />
            <mxPoint x="720" y="899.4099999999999" as="targetPoint" />
          </mxGeometry>
        </mxCell>
        <mxCell id="Q4vqD3HeZzeTy6qUB660-224" value="" style="rounded=0;whiteSpace=wrap;html=1;" vertex="1" parent="1">
          <mxGeometry x="840" y="760" width="40" height="40" as="geometry" />
        </mxCell>
        <mxCell id="Q4vqD3HeZzeTy6qUB660-225" value="" style="rounded=0;whiteSpace=wrap;html=1;" vertex="1" parent="1">
          <mxGeometry x="840" y="800" width="40" height="40" as="geometry" />
        </mxCell>
        <mxCell id="Q4vqD3HeZzeTy6qUB660-226" value="1" style="rounded=0;whiteSpace=wrap;html=1;fillColor=#d5e8d4;strokeColor=#82b366;" vertex="1" parent="1">
          <mxGeometry x="840" y="960" width="40" height="40" as="geometry" />
        </mxCell>
        <mxCell id="Q4vqD3HeZzeTy6qUB660-227" value="2" style="rounded=0;whiteSpace=wrap;html=1;fillColor=#d5e8d4;strokeColor=#82b366;" vertex="1" parent="1">
          <mxGeometry x="840" y="920" width="40" height="40" as="geometry" />
        </mxCell>
        <mxCell id="Q4vqD3HeZzeTy6qUB660-228" value="" style="rounded=0;whiteSpace=wrap;html=1;" vertex="1" parent="1">
          <mxGeometry x="840" y="840" width="40" height="40" as="geometry" />
        </mxCell>
        <mxCell id="Q4vqD3HeZzeTy6qUB660-229" value="3" style="rounded=0;whiteSpace=wrap;html=1;fillColor=#d5e8d4;strokeColor=#82b366;" vertex="1" parent="1">
          <mxGeometry x="840" y="880" width="40" height="40" as="geometry" />
        </mxCell>
        <mxCell id="Q4vqD3HeZzeTy6qUB660-230" value="" style="shape=flexArrow;endArrow=classic;html=1;rounded=0;" edge="1" parent="1">
          <mxGeometry width="50" height="50" relative="1" as="geometry">
            <mxPoint x="790" y="899.4099999999999" as="sourcePoint" />
            <mxPoint x="840" y="899.4099999999999" as="targetPoint" />
          </mxGeometry>
        </mxCell>
        <mxCell id="Q4vqD3HeZzeTy6qUB660-231" value="" style="rounded=0;whiteSpace=wrap;html=1;" vertex="1" parent="1">
          <mxGeometry x="960" y="760" width="40" height="40" as="geometry" />
        </mxCell>
        <mxCell id="Q4vqD3HeZzeTy6qUB660-232" value="" style="rounded=0;whiteSpace=wrap;html=1;" vertex="1" parent="1">
          <mxGeometry x="960" y="800" width="40" height="40" as="geometry" />
        </mxCell>
        <mxCell id="Q4vqD3HeZzeTy6qUB660-233" value="1" style="rounded=0;whiteSpace=wrap;html=1;fillColor=#d5e8d4;strokeColor=#82b366;" vertex="1" parent="1">
          <mxGeometry x="960" y="960" width="40" height="40" as="geometry" />
        </mxCell>
        <mxCell id="Q4vqD3HeZzeTy6qUB660-234" value="2" style="rounded=0;whiteSpace=wrap;html=1;fillColor=#d5e8d4;strokeColor=#82b366;" vertex="1" parent="1">
          <mxGeometry x="960" y="920" width="40" height="40" as="geometry" />
        </mxCell>
        <mxCell id="Q4vqD3HeZzeTy6qUB660-235" value="" style="rounded=0;whiteSpace=wrap;html=1;" vertex="1" parent="1">
          <mxGeometry x="960" y="840" width="40" height="40" as="geometry" />
        </mxCell>
        <mxCell id="Q4vqD3HeZzeTy6qUB660-236" value="3" style="rounded=0;whiteSpace=wrap;html=1;fillColor=#d5e8d4;strokeColor=#82b366;" vertex="1" parent="1">
          <mxGeometry x="960" y="880" width="40" height="40" as="geometry" />
        </mxCell>
        <mxCell id="Q4vqD3HeZzeTy6qUB660-237" value="" style="shape=flexArrow;endArrow=classic;html=1;rounded=0;" edge="1" parent="1">
          <mxGeometry width="50" height="50" relative="1" as="geometry">
            <mxPoint x="910" y="859.4099999999999" as="sourcePoint" />
            <mxPoint x="960" y="859.4099999999999" as="targetPoint" />
          </mxGeometry>
        </mxCell>
        <mxCell id="Q4vqD3HeZzeTy6qUB660-238" value="" style="rounded=0;whiteSpace=wrap;html=1;" vertex="1" parent="1">
          <mxGeometry x="1080" y="760" width="40" height="40" as="geometry" />
        </mxCell>
        <mxCell id="Q4vqD3HeZzeTy6qUB660-239" value="" style="rounded=0;whiteSpace=wrap;html=1;" vertex="1" parent="1">
          <mxGeometry x="1080" y="800" width="40" height="40" as="geometry" />
        </mxCell>
        <mxCell id="Q4vqD3HeZzeTy6qUB660-240" value="1" style="rounded=0;whiteSpace=wrap;html=1;fillColor=#d5e8d4;strokeColor=#82b366;" vertex="1" parent="1">
          <mxGeometry x="1080" y="960" width="40" height="40" as="geometry" />
        </mxCell>
        <mxCell id="Q4vqD3HeZzeTy6qUB660-241" value="2" style="rounded=0;whiteSpace=wrap;html=1;fillColor=#d5e8d4;strokeColor=#82b366;" vertex="1" parent="1">
          <mxGeometry x="1080" y="920" width="40" height="40" as="geometry" />
        </mxCell>
        <mxCell id="Q4vqD3HeZzeTy6qUB660-242" value="4" style="rounded=0;whiteSpace=wrap;html=1;fillColor=#d5e8d4;strokeColor=#82b366;" vertex="1" parent="1">
          <mxGeometry x="1080" y="840" width="40" height="40" as="geometry" />
        </mxCell>
        <mxCell id="Q4vqD3HeZzeTy6qUB660-243" value="3" style="rounded=0;whiteSpace=wrap;html=1;fillColor=#d5e8d4;strokeColor=#82b366;" vertex="1" parent="1">
          <mxGeometry x="1080" y="880" width="40" height="40" as="geometry" />
        </mxCell>
        <mxCell id="Q4vqD3HeZzeTy6qUB660-244" value="" style="shape=flexArrow;endArrow=classic;html=1;rounded=0;" edge="1" parent="1">
          <mxGeometry width="50" height="50" relative="1" as="geometry">
            <mxPoint x="1030" y="859.4099999999999" as="sourcePoint" />
            <mxPoint x="1080" y="859.4099999999999" as="targetPoint" />
          </mxGeometry>
        </mxCell>
        <mxCell id="Q4vqD3HeZzeTy6qUB660-245" value="" style="rounded=0;whiteSpace=wrap;html=1;" vertex="1" parent="1">
          <mxGeometry x="1201" y="760" width="40" height="40" as="geometry" />
        </mxCell>
        <mxCell id="Q4vqD3HeZzeTy6qUB660-246" value="" style="rounded=0;whiteSpace=wrap;html=1;" vertex="1" parent="1">
          <mxGeometry x="1201" y="800" width="40" height="40" as="geometry" />
        </mxCell>
        <mxCell id="Q4vqD3HeZzeTy6qUB660-247" value="1" style="rounded=0;whiteSpace=wrap;html=1;fillColor=#d5e8d4;strokeColor=#82b366;" vertex="1" parent="1">
          <mxGeometry x="1201" y="960" width="40" height="40" as="geometry" />
        </mxCell>
        <mxCell id="Q4vqD3HeZzeTy6qUB660-248" value="2" style="rounded=0;whiteSpace=wrap;html=1;fillColor=#d5e8d4;strokeColor=#82b366;" vertex="1" parent="1">
          <mxGeometry x="1201" y="920" width="40" height="40" as="geometry" />
        </mxCell>
        <mxCell id="Q4vqD3HeZzeTy6qUB660-249" value="4" style="rounded=0;whiteSpace=wrap;html=1;fillColor=#d5e8d4;strokeColor=#82b366;" vertex="1" parent="1">
          <mxGeometry x="1201" y="840" width="40" height="40" as="geometry" />
        </mxCell>
        <mxCell id="Q4vqD3HeZzeTy6qUB660-250" value="3" style="rounded=0;whiteSpace=wrap;html=1;fillColor=#d5e8d4;strokeColor=#82b366;" vertex="1" parent="1">
          <mxGeometry x="1201" y="880" width="40" height="40" as="geometry" />
        </mxCell>
        <mxCell id="Q4vqD3HeZzeTy6qUB660-251" value="" style="shape=flexArrow;endArrow=classic;html=1;rounded=0;" edge="1" parent="1">
          <mxGeometry width="50" height="50" relative="1" as="geometry">
            <mxPoint x="1151" y="819.4099999999999" as="sourcePoint" />
            <mxPoint x="1201" y="819.4099999999999" as="targetPoint" />
          </mxGeometry>
        </mxCell>
        <mxCell id="Q4vqD3HeZzeTy6qUB660-259" value="" style="rounded=0;whiteSpace=wrap;html=1;" vertex="1" parent="1">
          <mxGeometry x="1320" y="760" width="40" height="40" as="geometry" />
        </mxCell>
        <mxCell id="Q4vqD3HeZzeTy6qUB660-260" value="5" style="rounded=0;whiteSpace=wrap;html=1;fillColor=#d5e8d4;strokeColor=#82b366;" vertex="1" parent="1">
          <mxGeometry x="1320" y="800" width="40" height="40" as="geometry" />
        </mxCell>
        <mxCell id="Q4vqD3HeZzeTy6qUB660-261" value="1" style="rounded=0;whiteSpace=wrap;html=1;fillColor=#d5e8d4;strokeColor=#82b366;" vertex="1" parent="1">
          <mxGeometry x="1320" y="960" width="40" height="40" as="geometry" />
        </mxCell>
        <mxCell id="Q4vqD3HeZzeTy6qUB660-262" value="2" style="rounded=0;whiteSpace=wrap;html=1;fillColor=#d5e8d4;strokeColor=#82b366;" vertex="1" parent="1">
          <mxGeometry x="1320" y="920" width="40" height="40" as="geometry" />
        </mxCell>
        <mxCell id="Q4vqD3HeZzeTy6qUB660-263" value="4" style="rounded=0;whiteSpace=wrap;html=1;fillColor=#d5e8d4;strokeColor=#82b366;" vertex="1" parent="1">
          <mxGeometry x="1320" y="840" width="40" height="40" as="geometry" />
        </mxCell>
        <mxCell id="Q4vqD3HeZzeTy6qUB660-264" value="3" style="rounded=0;whiteSpace=wrap;html=1;fillColor=#d5e8d4;strokeColor=#82b366;" vertex="1" parent="1">
          <mxGeometry x="1320" y="880" width="40" height="40" as="geometry" />
        </mxCell>
        <mxCell id="Q4vqD3HeZzeTy6qUB660-265" value="" style="shape=flexArrow;endArrow=classic;html=1;rounded=0;" edge="1" parent="1">
          <mxGeometry width="50" height="50" relative="1" as="geometry">
            <mxPoint x="1270" y="819.4099999999999" as="sourcePoint" />
            <mxPoint x="1320" y="819.4099999999999" as="targetPoint" />
          </mxGeometry>
        </mxCell>
        <mxCell id="Q4vqD3HeZzeTy6qUB660-273" value="" style="rounded=0;whiteSpace=wrap;html=1;" vertex="1" parent="1">
          <mxGeometry x="1440" y="760" width="40" height="40" as="geometry" />
        </mxCell>
        <mxCell id="Q4vqD3HeZzeTy6qUB660-274" value="5" style="rounded=0;whiteSpace=wrap;html=1;fillColor=#d5e8d4;strokeColor=#82b366;" vertex="1" parent="1">
          <mxGeometry x="1440" y="800" width="40" height="40" as="geometry" />
        </mxCell>
        <mxCell id="Q4vqD3HeZzeTy6qUB660-275" value="1" style="rounded=0;whiteSpace=wrap;html=1;fillColor=#d5e8d4;strokeColor=#82b366;" vertex="1" parent="1">
          <mxGeometry x="1440" y="960" width="40" height="40" as="geometry" />
        </mxCell>
        <mxCell id="Q4vqD3HeZzeTy6qUB660-276" value="2" style="rounded=0;whiteSpace=wrap;html=1;fillColor=#d5e8d4;strokeColor=#82b366;" vertex="1" parent="1">
          <mxGeometry x="1440" y="920" width="40" height="40" as="geometry" />
        </mxCell>
        <mxCell id="Q4vqD3HeZzeTy6qUB660-277" value="4" style="rounded=0;whiteSpace=wrap;html=1;fillColor=#d5e8d4;strokeColor=#82b366;" vertex="1" parent="1">
          <mxGeometry x="1440" y="840" width="40" height="40" as="geometry" />
        </mxCell>
        <mxCell id="Q4vqD3HeZzeTy6qUB660-278" value="3" style="rounded=0;whiteSpace=wrap;html=1;fillColor=#d5e8d4;strokeColor=#82b366;" vertex="1" parent="1">
          <mxGeometry x="1440" y="880" width="40" height="40" as="geometry" />
        </mxCell>
        <mxCell id="Q4vqD3HeZzeTy6qUB660-279" value="" style="shape=flexArrow;endArrow=classic;html=1;rounded=0;" edge="1" parent="1">
          <mxGeometry width="50" height="50" relative="1" as="geometry">
            <mxPoint x="1390" y="779.4099999999999" as="sourcePoint" />
            <mxPoint x="1440" y="779.4099999999999" as="targetPoint" />
          </mxGeometry>
        </mxCell>
        <mxCell id="Q4vqD3HeZzeTy6qUB660-280" value="6" style="rounded=0;whiteSpace=wrap;html=1;fillColor=#d5e8d4;strokeColor=#82b366;" vertex="1" parent="1">
          <mxGeometry x="1560" y="760" width="40" height="40" as="geometry" />
        </mxCell>
        <mxCell id="Q4vqD3HeZzeTy6qUB660-281" value="5" style="rounded=0;whiteSpace=wrap;html=1;fillColor=#d5e8d4;strokeColor=#82b366;" vertex="1" parent="1">
          <mxGeometry x="1560" y="800" width="40" height="40" as="geometry" />
        </mxCell>
        <mxCell id="Q4vqD3HeZzeTy6qUB660-282" value="1" style="rounded=0;whiteSpace=wrap;html=1;fillColor=#d5e8d4;strokeColor=#82b366;" vertex="1" parent="1">
          <mxGeometry x="1560" y="960" width="40" height="40" as="geometry" />
        </mxCell>
        <mxCell id="Q4vqD3HeZzeTy6qUB660-283" value="2" style="rounded=0;whiteSpace=wrap;html=1;fillColor=#d5e8d4;strokeColor=#82b366;" vertex="1" parent="1">
          <mxGeometry x="1560" y="920" width="40" height="40" as="geometry" />
        </mxCell>
        <mxCell id="Q4vqD3HeZzeTy6qUB660-284" value="4" style="rounded=0;whiteSpace=wrap;html=1;fillColor=#d5e8d4;strokeColor=#82b366;" vertex="1" parent="1">
          <mxGeometry x="1560" y="840" width="40" height="40" as="geometry" />
        </mxCell>
        <mxCell id="Q4vqD3HeZzeTy6qUB660-285" value="3" style="rounded=0;whiteSpace=wrap;html=1;fillColor=#d5e8d4;strokeColor=#82b366;" vertex="1" parent="1">
          <mxGeometry x="1560" y="880" width="40" height="40" as="geometry" />
        </mxCell>
        <mxCell id="Q4vqD3HeZzeTy6qUB660-286" value="" style="shape=flexArrow;endArrow=classic;html=1;rounded=0;" edge="1" parent="1">
          <mxGeometry width="50" height="50" relative="1" as="geometry">
            <mxPoint x="1510" y="779.4099999999999" as="sourcePoint" />
            <mxPoint x="1560" y="779.4099999999999" as="targetPoint" />
          </mxGeometry>
        </mxCell>
        <mxCell id="Q4vqD3HeZzeTy6qUB660-287" value="6" style="rounded=0;whiteSpace=wrap;html=1;fillColor=#f8cecc;strokeColor=#b85450;" vertex="1" parent="1">
          <mxGeometry x="240" y="1080" width="40" height="40" as="geometry" />
        </mxCell>
        <mxCell id="Q4vqD3HeZzeTy6qUB660-288" value="5" style="rounded=0;whiteSpace=wrap;html=1;fillColor=#d5e8d4;strokeColor=#82b366;" vertex="1" parent="1">
          <mxGeometry x="240" y="1120" width="40" height="40" as="geometry" />
        </mxCell>
        <mxCell id="Q4vqD3HeZzeTy6qUB660-289" value="1" style="rounded=0;whiteSpace=wrap;html=1;fillColor=#d5e8d4;strokeColor=#82b366;" vertex="1" parent="1">
          <mxGeometry x="240" y="1280" width="40" height="40" as="geometry" />
        </mxCell>
        <mxCell id="Q4vqD3HeZzeTy6qUB660-290" value="2" style="rounded=0;whiteSpace=wrap;html=1;fillColor=#d5e8d4;strokeColor=#82b366;" vertex="1" parent="1">
          <mxGeometry x="240" y="1240" width="40" height="40" as="geometry" />
        </mxCell>
        <mxCell id="Q4vqD3HeZzeTy6qUB660-291" value="4" style="rounded=0;whiteSpace=wrap;html=1;fillColor=#d5e8d4;strokeColor=#82b366;" vertex="1" parent="1">
          <mxGeometry x="240" y="1160" width="40" height="40" as="geometry" />
        </mxCell>
        <mxCell id="Q4vqD3HeZzeTy6qUB660-292" value="3" style="rounded=0;whiteSpace=wrap;html=1;fillColor=#d5e8d4;strokeColor=#82b366;" vertex="1" parent="1">
          <mxGeometry x="240" y="1200" width="40" height="40" as="geometry" />
        </mxCell>
        <mxCell id="Q4vqD3HeZzeTy6qUB660-294" value="" style="rounded=0;whiteSpace=wrap;html=1;" vertex="1" parent="1">
          <mxGeometry x="360" y="1080" width="40" height="40" as="geometry" />
        </mxCell>
        <mxCell id="Q4vqD3HeZzeTy6qUB660-295" value="5" style="rounded=0;whiteSpace=wrap;html=1;fillColor=#d5e8d4;strokeColor=#82b366;" vertex="1" parent="1">
          <mxGeometry x="360" y="1120" width="40" height="40" as="geometry" />
        </mxCell>
        <mxCell id="Q4vqD3HeZzeTy6qUB660-296" value="1" style="rounded=0;whiteSpace=wrap;html=1;fillColor=#d5e8d4;strokeColor=#82b366;" vertex="1" parent="1">
          <mxGeometry x="360" y="1280" width="40" height="40" as="geometry" />
        </mxCell>
        <mxCell id="Q4vqD3HeZzeTy6qUB660-297" value="2" style="rounded=0;whiteSpace=wrap;html=1;fillColor=#d5e8d4;strokeColor=#82b366;" vertex="1" parent="1">
          <mxGeometry x="360" y="1240" width="40" height="40" as="geometry" />
        </mxCell>
        <mxCell id="Q4vqD3HeZzeTy6qUB660-298" value="4" style="rounded=0;whiteSpace=wrap;html=1;fillColor=#d5e8d4;strokeColor=#82b366;" vertex="1" parent="1">
          <mxGeometry x="360" y="1160" width="40" height="40" as="geometry" />
        </mxCell>
        <mxCell id="Q4vqD3HeZzeTy6qUB660-299" value="3" style="rounded=0;whiteSpace=wrap;html=1;fillColor=#d5e8d4;strokeColor=#82b366;" vertex="1" parent="1">
          <mxGeometry x="360" y="1200" width="40" height="40" as="geometry" />
        </mxCell>
        <mxCell id="Q4vqD3HeZzeTy6qUB660-300" value="" style="rounded=0;whiteSpace=wrap;html=1;" vertex="1" parent="1">
          <mxGeometry x="480" y="1080" width="40" height="40" as="geometry" />
        </mxCell>
        <mxCell id="Q4vqD3HeZzeTy6qUB660-301" value="5" style="rounded=0;whiteSpace=wrap;html=1;fillColor=#f8cecc;strokeColor=#b85450;" vertex="1" parent="1">
          <mxGeometry x="480" y="1120" width="40" height="40" as="geometry" />
        </mxCell>
        <mxCell id="Q4vqD3HeZzeTy6qUB660-302" value="1" style="rounded=0;whiteSpace=wrap;html=1;fillColor=#d5e8d4;strokeColor=#82b366;" vertex="1" parent="1">
          <mxGeometry x="480" y="1280" width="40" height="40" as="geometry" />
        </mxCell>
        <mxCell id="Q4vqD3HeZzeTy6qUB660-303" value="2" style="rounded=0;whiteSpace=wrap;html=1;fillColor=#d5e8d4;strokeColor=#82b366;" vertex="1" parent="1">
          <mxGeometry x="480" y="1240" width="40" height="40" as="geometry" />
        </mxCell>
        <mxCell id="Q4vqD3HeZzeTy6qUB660-304" value="4" style="rounded=0;whiteSpace=wrap;html=1;fillColor=#d5e8d4;strokeColor=#82b366;" vertex="1" parent="1">
          <mxGeometry x="480" y="1160" width="40" height="40" as="geometry" />
        </mxCell>
        <mxCell id="Q4vqD3HeZzeTy6qUB660-305" value="3" style="rounded=0;whiteSpace=wrap;html=1;fillColor=#d5e8d4;strokeColor=#82b366;" vertex="1" parent="1">
          <mxGeometry x="480" y="1200" width="40" height="40" as="geometry" />
        </mxCell>
        <mxCell id="Q4vqD3HeZzeTy6qUB660-306" value="" style="rounded=0;whiteSpace=wrap;html=1;" vertex="1" parent="1">
          <mxGeometry x="600" y="1080" width="40" height="40" as="geometry" />
        </mxCell>
        <mxCell id="Q4vqD3HeZzeTy6qUB660-307" value="" style="rounded=0;whiteSpace=wrap;html=1;" vertex="1" parent="1">
          <mxGeometry x="600" y="1120" width="40" height="40" as="geometry" />
        </mxCell>
        <mxCell id="Q4vqD3HeZzeTy6qUB660-308" value="1" style="rounded=0;whiteSpace=wrap;html=1;fillColor=#d5e8d4;strokeColor=#82b366;" vertex="1" parent="1">
          <mxGeometry x="600" y="1280" width="40" height="40" as="geometry" />
        </mxCell>
        <mxCell id="Q4vqD3HeZzeTy6qUB660-309" value="2" style="rounded=0;whiteSpace=wrap;html=1;fillColor=#d5e8d4;strokeColor=#82b366;" vertex="1" parent="1">
          <mxGeometry x="600" y="1240" width="40" height="40" as="geometry" />
        </mxCell>
        <mxCell id="Q4vqD3HeZzeTy6qUB660-310" value="4" style="rounded=0;whiteSpace=wrap;html=1;fillColor=#d5e8d4;strokeColor=#82b366;" vertex="1" parent="1">
          <mxGeometry x="600" y="1160" width="40" height="40" as="geometry" />
        </mxCell>
        <mxCell id="Q4vqD3HeZzeTy6qUB660-311" value="3" style="rounded=0;whiteSpace=wrap;html=1;fillColor=#d5e8d4;strokeColor=#82b366;" vertex="1" parent="1">
          <mxGeometry x="600" y="1200" width="40" height="40" as="geometry" />
        </mxCell>
        <mxCell id="Q4vqD3HeZzeTy6qUB660-312" value="" style="rounded=0;whiteSpace=wrap;html=1;" vertex="1" parent="1">
          <mxGeometry x="720" y="1080" width="40" height="40" as="geometry" />
        </mxCell>
        <mxCell id="Q4vqD3HeZzeTy6qUB660-313" value="" style="rounded=0;whiteSpace=wrap;html=1;" vertex="1" parent="1">
          <mxGeometry x="720" y="1120" width="40" height="40" as="geometry" />
        </mxCell>
        <mxCell id="Q4vqD3HeZzeTy6qUB660-314" value="1" style="rounded=0;whiteSpace=wrap;html=1;fillColor=#d5e8d4;strokeColor=#82b366;" vertex="1" parent="1">
          <mxGeometry x="720" y="1280" width="40" height="40" as="geometry" />
        </mxCell>
        <mxCell id="Q4vqD3HeZzeTy6qUB660-315" value="2" style="rounded=0;whiteSpace=wrap;html=1;fillColor=#d5e8d4;strokeColor=#82b366;" vertex="1" parent="1">
          <mxGeometry x="720" y="1240" width="40" height="40" as="geometry" />
        </mxCell>
        <mxCell id="Q4vqD3HeZzeTy6qUB660-316" value="4" style="rounded=0;whiteSpace=wrap;html=1;fillColor=#f8cecc;strokeColor=#b85450;" vertex="1" parent="1">
          <mxGeometry x="720" y="1160" width="40" height="40" as="geometry" />
        </mxCell>
        <mxCell id="Q4vqD3HeZzeTy6qUB660-317" value="3" style="rounded=0;whiteSpace=wrap;html=1;fillColor=#d5e8d4;strokeColor=#82b366;" vertex="1" parent="1">
          <mxGeometry x="720" y="1200" width="40" height="40" as="geometry" />
        </mxCell>
        <mxCell id="Q4vqD3HeZzeTy6qUB660-318" value="" style="rounded=0;whiteSpace=wrap;html=1;" vertex="1" parent="1">
          <mxGeometry x="840" y="1080" width="40" height="40" as="geometry" />
        </mxCell>
        <mxCell id="Q4vqD3HeZzeTy6qUB660-319" value="" style="rounded=0;whiteSpace=wrap;html=1;" vertex="1" parent="1">
          <mxGeometry x="840" y="1120" width="40" height="40" as="geometry" />
        </mxCell>
        <mxCell id="Q4vqD3HeZzeTy6qUB660-320" value="1" style="rounded=0;whiteSpace=wrap;html=1;fillColor=#d5e8d4;strokeColor=#82b366;" vertex="1" parent="1">
          <mxGeometry x="840" y="1280" width="40" height="40" as="geometry" />
        </mxCell>
        <mxCell id="Q4vqD3HeZzeTy6qUB660-321" value="2" style="rounded=0;whiteSpace=wrap;html=1;fillColor=#d5e8d4;strokeColor=#82b366;" vertex="1" parent="1">
          <mxGeometry x="840" y="1240" width="40" height="40" as="geometry" />
        </mxCell>
        <mxCell id="Q4vqD3HeZzeTy6qUB660-322" value="" style="rounded=0;whiteSpace=wrap;html=1;" vertex="1" parent="1">
          <mxGeometry x="840" y="1160" width="40" height="40" as="geometry" />
        </mxCell>
        <mxCell id="Q4vqD3HeZzeTy6qUB660-323" value="3" style="rounded=0;whiteSpace=wrap;html=1;fillColor=#d5e8d4;strokeColor=#82b366;" vertex="1" parent="1">
          <mxGeometry x="840" y="1200" width="40" height="40" as="geometry" />
        </mxCell>
        <mxCell id="Q4vqD3HeZzeTy6qUB660-324" value="" style="rounded=0;whiteSpace=wrap;html=1;" vertex="1" parent="1">
          <mxGeometry x="960" y="1080" width="40" height="40" as="geometry" />
        </mxCell>
        <mxCell id="Q4vqD3HeZzeTy6qUB660-325" value="" style="rounded=0;whiteSpace=wrap;html=1;" vertex="1" parent="1">
          <mxGeometry x="960" y="1120" width="40" height="40" as="geometry" />
        </mxCell>
        <mxCell id="Q4vqD3HeZzeTy6qUB660-326" value="1" style="rounded=0;whiteSpace=wrap;html=1;fillColor=#d5e8d4;strokeColor=#82b366;" vertex="1" parent="1">
          <mxGeometry x="960" y="1280" width="40" height="40" as="geometry" />
        </mxCell>
        <mxCell id="Q4vqD3HeZzeTy6qUB660-327" value="2" style="rounded=0;whiteSpace=wrap;html=1;fillColor=#d5e8d4;strokeColor=#82b366;" vertex="1" parent="1">
          <mxGeometry x="960" y="1240" width="40" height="40" as="geometry" />
        </mxCell>
        <mxCell id="Q4vqD3HeZzeTy6qUB660-328" value="" style="rounded=0;whiteSpace=wrap;html=1;" vertex="1" parent="1">
          <mxGeometry x="960" y="1160" width="40" height="40" as="geometry" />
        </mxCell>
        <mxCell id="Q4vqD3HeZzeTy6qUB660-329" value="3" style="rounded=0;whiteSpace=wrap;html=1;fillColor=#f8cecc;strokeColor=#b85450;" vertex="1" parent="1">
          <mxGeometry x="960" y="1200" width="40" height="40" as="geometry" />
        </mxCell>
        <mxCell id="Q4vqD3HeZzeTy6qUB660-330" value="" style="rounded=0;whiteSpace=wrap;html=1;" vertex="1" parent="1">
          <mxGeometry x="1080" y="1080" width="40" height="40" as="geometry" />
        </mxCell>
        <mxCell id="Q4vqD3HeZzeTy6qUB660-331" value="" style="rounded=0;whiteSpace=wrap;html=1;" vertex="1" parent="1">
          <mxGeometry x="1080" y="1120" width="40" height="40" as="geometry" />
        </mxCell>
        <mxCell id="Q4vqD3HeZzeTy6qUB660-332" value="1" style="rounded=0;whiteSpace=wrap;html=1;fillColor=#d5e8d4;strokeColor=#82b366;" vertex="1" parent="1">
          <mxGeometry x="1080" y="1280" width="40" height="40" as="geometry" />
        </mxCell>
        <mxCell id="Q4vqD3HeZzeTy6qUB660-333" value="2" style="rounded=0;whiteSpace=wrap;html=1;fillColor=#d5e8d4;strokeColor=#82b366;" vertex="1" parent="1">
          <mxGeometry x="1080" y="1240" width="40" height="40" as="geometry" />
        </mxCell>
        <mxCell id="Q4vqD3HeZzeTy6qUB660-334" value="" style="rounded=0;whiteSpace=wrap;html=1;" vertex="1" parent="1">
          <mxGeometry x="1080" y="1160" width="40" height="40" as="geometry" />
        </mxCell>
        <mxCell id="Q4vqD3HeZzeTy6qUB660-335" value="" style="rounded=0;whiteSpace=wrap;html=1;" vertex="1" parent="1">
          <mxGeometry x="1080" y="1200" width="40" height="40" as="geometry" />
        </mxCell>
        <mxCell id="Q4vqD3HeZzeTy6qUB660-336" value="" style="shape=flexArrow;endArrow=classic;html=1;rounded=0;" edge="1" parent="1">
          <mxGeometry width="50" height="50" relative="1" as="geometry">
            <mxPoint x="190" y="1099.33" as="sourcePoint" />
            <mxPoint x="240" y="1099.33" as="targetPoint" />
          </mxGeometry>
        </mxCell>
        <mxCell id="Q4vqD3HeZzeTy6qUB660-337" value="&lt;font style=&quot;font-size: 14px;&quot;&gt;指针指向&lt;/font&gt;" style="text;html=1;align=center;verticalAlign=middle;resizable=0;points=[];autosize=1;strokeColor=none;fillColor=none;" vertex="1" parent="1">
          <mxGeometry x="110" y="1085" width="80" height="30" as="geometry" />
        </mxCell>
        <mxCell id="Q4vqD3HeZzeTy6qUB660-338" value="" style="rounded=0;whiteSpace=wrap;html=1;" vertex="1" parent="1">
          <mxGeometry x="1201" y="1080" width="40" height="40" as="geometry" />
        </mxCell>
        <mxCell id="Q4vqD3HeZzeTy6qUB660-339" value="" style="rounded=0;whiteSpace=wrap;html=1;" vertex="1" parent="1">
          <mxGeometry x="1201" y="1120" width="40" height="40" as="geometry" />
        </mxCell>
        <mxCell id="Q4vqD3HeZzeTy6qUB660-340" value="1" style="rounded=0;whiteSpace=wrap;html=1;fillColor=#d5e8d4;strokeColor=#82b366;" vertex="1" parent="1">
          <mxGeometry x="1201" y="1280" width="40" height="40" as="geometry" />
        </mxCell>
        <mxCell id="Q4vqD3HeZzeTy6qUB660-341" value="2" style="rounded=0;whiteSpace=wrap;html=1;fillColor=#f8cecc;strokeColor=#b85450;" vertex="1" parent="1">
          <mxGeometry x="1201" y="1240" width="40" height="40" as="geometry" />
        </mxCell>
        <mxCell id="Q4vqD3HeZzeTy6qUB660-342" value="" style="rounded=0;whiteSpace=wrap;html=1;" vertex="1" parent="1">
          <mxGeometry x="1201" y="1160" width="40" height="40" as="geometry" />
        </mxCell>
        <mxCell id="Q4vqD3HeZzeTy6qUB660-343" value="" style="rounded=0;whiteSpace=wrap;html=1;" vertex="1" parent="1">
          <mxGeometry x="1201" y="1200" width="40" height="40" as="geometry" />
        </mxCell>
        <mxCell id="Q4vqD3HeZzeTy6qUB660-344" value="" style="rounded=0;whiteSpace=wrap;html=1;" vertex="1" parent="1">
          <mxGeometry x="1320" y="1080" width="40" height="40" as="geometry" />
        </mxCell>
        <mxCell id="Q4vqD3HeZzeTy6qUB660-345" value="" style="rounded=0;whiteSpace=wrap;html=1;" vertex="1" parent="1">
          <mxGeometry x="1320" y="1120" width="40" height="40" as="geometry" />
        </mxCell>
        <mxCell id="Q4vqD3HeZzeTy6qUB660-346" value="1" style="rounded=0;whiteSpace=wrap;html=1;fillColor=#d5e8d4;strokeColor=#82b366;" vertex="1" parent="1">
          <mxGeometry x="1320" y="1280" width="40" height="40" as="geometry" />
        </mxCell>
        <mxCell id="Q4vqD3HeZzeTy6qUB660-347" value="" style="rounded=0;whiteSpace=wrap;html=1;" vertex="1" parent="1">
          <mxGeometry x="1320" y="1240" width="40" height="40" as="geometry" />
        </mxCell>
        <mxCell id="Q4vqD3HeZzeTy6qUB660-348" value="" style="rounded=0;whiteSpace=wrap;html=1;" vertex="1" parent="1">
          <mxGeometry x="1320" y="1160" width="40" height="40" as="geometry" />
        </mxCell>
        <mxCell id="Q4vqD3HeZzeTy6qUB660-349" value="" style="rounded=0;whiteSpace=wrap;html=1;" vertex="1" parent="1">
          <mxGeometry x="1320" y="1200" width="40" height="40" as="geometry" />
        </mxCell>
        <mxCell id="Q4vqD3HeZzeTy6qUB660-350" value="" style="rounded=0;whiteSpace=wrap;html=1;" vertex="1" parent="1">
          <mxGeometry x="1440" y="1080" width="40" height="40" as="geometry" />
        </mxCell>
        <mxCell id="Q4vqD3HeZzeTy6qUB660-351" value="" style="rounded=0;whiteSpace=wrap;html=1;" vertex="1" parent="1">
          <mxGeometry x="1440" y="1120" width="40" height="40" as="geometry" />
        </mxCell>
        <mxCell id="Q4vqD3HeZzeTy6qUB660-352" value="1" style="rounded=0;whiteSpace=wrap;html=1;fillColor=#f8cecc;strokeColor=#b85450;" vertex="1" parent="1">
          <mxGeometry x="1440" y="1280" width="40" height="40" as="geometry" />
        </mxCell>
        <mxCell id="Q4vqD3HeZzeTy6qUB660-353" value="" style="rounded=0;whiteSpace=wrap;html=1;" vertex="1" parent="1">
          <mxGeometry x="1440" y="1240" width="40" height="40" as="geometry" />
        </mxCell>
        <mxCell id="Q4vqD3HeZzeTy6qUB660-354" value="" style="rounded=0;whiteSpace=wrap;html=1;" vertex="1" parent="1">
          <mxGeometry x="1440" y="1160" width="40" height="40" as="geometry" />
        </mxCell>
        <mxCell id="Q4vqD3HeZzeTy6qUB660-355" value="" style="rounded=0;whiteSpace=wrap;html=1;" vertex="1" parent="1">
          <mxGeometry x="1440" y="1200" width="40" height="40" as="geometry" />
        </mxCell>
        <mxCell id="Q4vqD3HeZzeTy6qUB660-356" value="" style="rounded=0;whiteSpace=wrap;html=1;" vertex="1" parent="1">
          <mxGeometry x="1560" y="1080" width="40" height="40" as="geometry" />
        </mxCell>
        <mxCell id="Q4vqD3HeZzeTy6qUB660-357" value="" style="rounded=0;whiteSpace=wrap;html=1;" vertex="1" parent="1">
          <mxGeometry x="1560" y="1120" width="40" height="40" as="geometry" />
        </mxCell>
        <mxCell id="Q4vqD3HeZzeTy6qUB660-358" value="" style="rounded=0;whiteSpace=wrap;html=1;" vertex="1" parent="1">
          <mxGeometry x="1560" y="1280" width="40" height="40" as="geometry" />
        </mxCell>
        <mxCell id="Q4vqD3HeZzeTy6qUB660-359" value="" style="rounded=0;whiteSpace=wrap;html=1;" vertex="1" parent="1">
          <mxGeometry x="1560" y="1240" width="40" height="40" as="geometry" />
        </mxCell>
        <mxCell id="Q4vqD3HeZzeTy6qUB660-360" value="" style="rounded=0;whiteSpace=wrap;html=1;" vertex="1" parent="1">
          <mxGeometry x="1560" y="1160" width="40" height="40" as="geometry" />
        </mxCell>
        <mxCell id="Q4vqD3HeZzeTy6qUB660-361" value="" style="rounded=0;whiteSpace=wrap;html=1;" vertex="1" parent="1">
          <mxGeometry x="1560" y="1200" width="40" height="40" as="geometry" />
        </mxCell>
        <mxCell id="Q4vqD3HeZzeTy6qUB660-362" value="" style="shape=flexArrow;endArrow=classic;html=1;rounded=0;" edge="1" parent="1">
          <mxGeometry width="50" height="50" relative="1" as="geometry">
            <mxPoint x="430" y="1139.5" as="sourcePoint" />
            <mxPoint x="480" y="1139.5" as="targetPoint" />
          </mxGeometry>
        </mxCell>
        <mxCell id="Q4vqD3HeZzeTy6qUB660-363" value="" style="shape=flexArrow;endArrow=classic;html=1;rounded=0;" edge="1" parent="1">
          <mxGeometry width="50" height="50" relative="1" as="geometry">
            <mxPoint x="670" y="1179.71" as="sourcePoint" />
            <mxPoint x="720" y="1179.71" as="targetPoint" />
          </mxGeometry>
        </mxCell>
        <mxCell id="Q4vqD3HeZzeTy6qUB660-364" value="" style="shape=flexArrow;endArrow=classic;html=1;rounded=0;" edge="1" parent="1">
          <mxGeometry width="50" height="50" relative="1" as="geometry">
            <mxPoint x="910" y="1219.5" as="sourcePoint" />
            <mxPoint x="960" y="1219.5" as="targetPoint" />
          </mxGeometry>
        </mxCell>
        <mxCell id="Q4vqD3HeZzeTy6qUB660-365" value="" style="shape=flexArrow;endArrow=classic;html=1;rounded=0;" edge="1" parent="1">
          <mxGeometry width="50" height="50" relative="1" as="geometry">
            <mxPoint x="1151" y="1259.71" as="sourcePoint" />
            <mxPoint x="1201" y="1259.71" as="targetPoint" />
          </mxGeometry>
        </mxCell>
        <mxCell id="Q4vqD3HeZzeTy6qUB660-366" value="" style="shape=flexArrow;endArrow=classic;html=1;rounded=0;" edge="1" parent="1">
          <mxGeometry width="50" height="50" relative="1" as="geometry">
            <mxPoint x="310" y="1099.5" as="sourcePoint" />
            <mxPoint x="360" y="1099.5" as="targetPoint" />
          </mxGeometry>
        </mxCell>
        <mxCell id="Q4vqD3HeZzeTy6qUB660-367" value="" style="shape=flexArrow;endArrow=classic;html=1;rounded=0;" edge="1" parent="1">
          <mxGeometry width="50" height="50" relative="1" as="geometry">
            <mxPoint x="550" y="1139.5" as="sourcePoint" />
            <mxPoint x="600" y="1139.5" as="targetPoint" />
          </mxGeometry>
        </mxCell>
        <mxCell id="Q4vqD3HeZzeTy6qUB660-368" value="" style="shape=flexArrow;endArrow=classic;html=1;rounded=0;" edge="1" parent="1">
          <mxGeometry width="50" height="50" relative="1" as="geometry">
            <mxPoint x="790" y="1179.5" as="sourcePoint" />
            <mxPoint x="840" y="1179.5" as="targetPoint" />
          </mxGeometry>
        </mxCell>
        <mxCell id="Q4vqD3HeZzeTy6qUB660-369" value="" style="shape=flexArrow;endArrow=classic;html=1;rounded=0;" edge="1" parent="1">
          <mxGeometry width="50" height="50" relative="1" as="geometry">
            <mxPoint x="1030" y="1219.5" as="sourcePoint" />
            <mxPoint x="1080" y="1219.5" as="targetPoint" />
          </mxGeometry>
        </mxCell>
        <mxCell id="Q4vqD3HeZzeTy6qUB660-370" value="" style="shape=flexArrow;endArrow=classic;html=1;rounded=0;" edge="1" parent="1">
          <mxGeometry width="50" height="50" relative="1" as="geometry">
            <mxPoint x="1270" y="1259.5" as="sourcePoint" />
            <mxPoint x="1320" y="1259.5" as="targetPoint" />
          </mxGeometry>
        </mxCell>
        <mxCell id="Q4vqD3HeZzeTy6qUB660-371" value="" style="shape=flexArrow;endArrow=classic;html=1;rounded=0;" edge="1" parent="1">
          <mxGeometry width="50" height="50" relative="1" as="geometry">
            <mxPoint x="1390" y="1299.5" as="sourcePoint" />
            <mxPoint x="1440" y="1299.5" as="targetPoint" />
          </mxGeometry>
        </mxCell>
        <mxCell id="Q4vqD3HeZzeTy6qUB660-372" value="" style="shape=flexArrow;endArrow=classic;html=1;rounded=0;" edge="1" parent="1">
          <mxGeometry width="50" height="50" relative="1" as="geometry">
            <mxPoint x="1510" y="1299.5" as="sourcePoint" />
            <mxPoint x="1560" y="1299.5" as="targetPoint" />
          </mxGeometry>
        </mxCell>
        <mxCell id="Q4vqD3HeZzeTy6qUB660-373" value="指针永远指向下一个要插入的位置&lt;div&gt;&lt;br&gt;&lt;/div&gt;" style="text;html=1;align=center;verticalAlign=middle;resizable=0;points=[];autosize=1;strokeColor=none;fillColor=none;" vertex="1" parent="1">
          <mxGeometry x="240" y="1380" width="200" height="40" as="geometry" />
        </mxCell>
        <mxCell id="Q4vqD3HeZzeTy6qUB660-374" value="&lt;font style=&quot;font-size: 14px;&quot;&gt;指针指向&lt;/font&gt;" style="text;html=1;align=center;verticalAlign=middle;resizable=0;points=[];autosize=1;strokeColor=none;fillColor=none;" vertex="1" parent="1">
          <mxGeometry x="110" y="965" width="80" height="30" as="geometry" />
        </mxCell>
        <mxCell id="Q4vqD3HeZzeTy6qUB660-378" value="&lt;div&gt;栈只能按顺序进出&lt;/div&gt;&lt;div&gt;&lt;br&gt;&lt;/div&gt;" style="text;html=1;align=center;verticalAlign=middle;resizable=0;points=[];autosize=1;strokeColor=none;fillColor=none;" vertex="1" parent="1">
          <mxGeometry x="480" y="1380" width="120" height="40" as="geometry" />
        </mxCell>
        <mxCell id="Q4vqD3HeZzeTy6qUB660-379" value="&lt;font style=&quot;font-size: 14px;&quot;&gt;红色代表弹出&lt;/font&gt;" style="text;html=1;align=center;verticalAlign=middle;resizable=0;points=[];autosize=1;strokeColor=none;fillColor=none;" vertex="1" parent="1">
          <mxGeometry x="205" y="680" width="110" height="30" as="geometry" />
        </mxCell>
        <mxCell id="Q4vqD3HeZzeTy6qUB660-380" value="&lt;font style=&quot;font-size: 14px;&quot;&gt;绿色代表压入&lt;/font&gt;" style="text;html=1;align=center;verticalAlign=middle;resizable=0;points=[];autosize=1;strokeColor=none;fillColor=none;" vertex="1" parent="1">
          <mxGeometry x="205" y="650" width="110" height="30" as="geometry" />
        </mxCell>
        <mxCell id="Q4vqD3HeZzeTy6qUB660-381" value="&lt;font style=&quot;font-size: 14px;&quot;&gt;白色代表空位&lt;/font&gt;" style="text;html=1;align=center;verticalAlign=middle;resizable=0;points=[];autosize=1;strokeColor=none;fillColor=none;" vertex="1" parent="1">
          <mxGeometry x="205" y="710" width="110" height="30" as="geometry" />
        </mxCell>
      </root>
    </mxGraphModel>
  </diagram>
</mxfile>
